<svg width="500" height="500" viewBox="0 0 500 500" fill="none" xmlns="http://www.w3.org/2000/svg">
<path d="M500 382.4H0V382.65H500V382.4Z" fill="#EBEBEB"/>
<path d="M449.901 398.49H416.781V398.74H449.901V398.49Z" fill="#EBEBEB"/>
<path d="M331.221 401.211H322.531V401.461H331.221V401.211Z" fill="#EBEBEB"/>
<path d="M415.78 389.211H396.59V389.461H415.78V389.211Z" fill="#EBEBEB"/>
<path d="M95.6509 390.891H52.4609V391.141H95.6509V390.891Z" fill="#EBEBEB"/>
<path d="M110.889 390.891H104.559V391.141H110.889V390.891Z" fill="#EBEBEB"/>
<path d="M225.149 395.109H131.469V395.359H225.149V395.109Z" fill="#EBEBEB"/>
<path d="M237.001 337.8H43.9109C42.3983 337.797 40.9485 337.195 39.8798 336.124C38.8112 335.053 38.2109 333.603 38.2109 332.09V60.66C38.2241 59.156 38.8301 57.718 39.8974 56.6582C40.9646 55.5985 42.4069 55.0026 43.9109 55H237.001C238.515 55 239.968 55.6016 241.039 56.6724C242.109 57.7433 242.711 59.1956 242.711 60.71V332.09C242.711 333.604 242.109 335.057 241.039 336.128C239.968 337.198 238.515 337.8 237.001 337.8ZM43.9109 55.2C42.4646 55.2026 41.0784 55.7791 40.0566 56.8027C39.0348 57.8264 38.4609 59.2136 38.4609 60.66V332.09C38.4609 333.536 39.0348 334.924 40.0566 335.947C41.0784 336.971 42.4646 337.547 43.9109 337.55H237.001C238.448 337.547 239.835 336.971 240.859 335.948C241.882 334.924 242.458 333.537 242.461 332.09V60.66C242.458 59.2127 241.882 57.8255 240.859 56.8021C239.835 55.7787 238.448 55.2026 237.001 55.2H43.9109Z" fill="#EBEBEB"/>
<path d="M453.31 337.8H260.21C258.696 337.797 257.246 337.195 256.175 336.125C255.105 335.054 254.503 333.604 254.5 332.09V60.66C254.516 59.1551 255.124 57.7171 256.193 56.6576C257.262 55.5981 258.705 55.0025 260.21 55H453.31C454.812 55.0052 456.252 55.6022 457.317 56.6617C458.382 57.7212 458.987 59.1578 459 60.66V332.09C459 333.601 458.401 335.05 457.335 336.121C456.268 337.191 454.821 337.795 453.31 337.8ZM260.21 55.2C258.763 55.2026 257.375 55.7787 256.352 56.8021C255.329 57.8255 254.753 59.2127 254.75 60.66V332.09C254.753 333.537 255.329 334.924 256.352 335.948C257.375 336.971 258.763 337.547 260.21 337.55H453.31C454.757 337.547 456.145 336.971 457.168 335.948C458.191 334.924 458.767 333.537 458.77 332.09V60.66C458.767 59.2127 458.191 57.8255 457.168 56.8021C456.145 55.7787 454.757 55.2026 453.31 55.2H260.21Z" fill="#EBEBEB"/>
<path d="M287.48 264.17H142.41V356.45H287.48V264.17Z" fill="#EBEBEB"/>
<path d="M287.48 264.17H142.41V270.42H287.48V264.17Z" fill="#E0E0E0"/>
<path d="M283.439 269.18C284.477 269.18 285.319 268.338 285.319 267.3C285.319 266.262 284.477 265.42 283.439 265.42C282.4 265.42 281.559 266.262 281.559 267.3C281.559 268.338 282.4 269.18 283.439 269.18Z" fill="#FAFAFA"/>
<path d="M277.181 269.18C278.219 269.18 279.061 268.338 279.061 267.3C279.061 266.262 278.219 265.42 277.181 265.42C276.142 265.42 275.301 266.262 275.301 267.3C275.301 268.338 276.142 269.18 277.181 269.18Z" fill="#FAFAFA"/>
<path d="M270.919 269.18C271.957 269.18 272.799 268.338 272.799 267.3C272.799 266.262 271.957 265.42 270.919 265.42C269.881 265.42 269.039 266.262 269.039 267.3C269.039 268.338 269.881 269.18 270.919 269.18Z" fill="#FAFAFA"/>
<path d="M368.511 289.961H223.441V382.241H368.511V289.961Z" fill="#F5F5F5"/>
<path d="M368.511 289.961H223.441V296.211H368.511V289.961Z" fill="#E0E0E0"/>
<path d="M366.35 293.079C366.35 293.451 366.24 293.815 366.033 294.124C365.826 294.433 365.533 294.674 365.189 294.816C364.846 294.958 364.468 294.996 364.103 294.923C363.738 294.851 363.403 294.671 363.14 294.409C362.878 294.146 362.699 293.811 362.626 293.446C362.553 293.081 362.591 292.703 362.733 292.36C362.875 292.016 363.116 291.723 363.425 291.516C363.735 291.309 364.098 291.199 364.47 291.199C364.968 291.199 365.447 291.397 365.799 291.75C366.152 292.102 366.35 292.581 366.35 293.079Z" fill="#FAFAFA"/>
<path d="M360.088 293.079C360.088 293.451 359.978 293.815 359.771 294.124C359.565 294.433 359.271 294.674 358.928 294.816C358.584 294.958 358.206 294.996 357.841 294.923C357.477 294.851 357.142 294.671 356.879 294.409C356.616 294.146 356.437 293.811 356.364 293.446C356.292 293.081 356.329 292.703 356.471 292.36C356.614 292.016 356.854 291.723 357.164 291.516C357.473 291.309 357.836 291.199 358.208 291.199C358.707 291.199 359.185 291.397 359.537 291.75C359.89 292.102 360.088 292.581 360.088 293.079Z" fill="#FAFAFA"/>
<path d="M353.83 293.08C353.83 293.454 353.719 293.819 353.51 294.129C353.301 294.44 353.004 294.68 352.658 294.821C352.311 294.962 351.931 294.996 351.565 294.919C351.199 294.843 350.864 294.658 350.603 294.391C350.342 294.123 350.167 293.783 350.101 293.415C350.034 293.047 350.078 292.668 350.228 292.325C350.378 291.983 350.627 291.693 350.943 291.492C351.258 291.292 351.627 291.19 352 291.2C352.49 291.213 352.956 291.417 353.297 291.768C353.639 292.119 353.83 292.59 353.83 293.08Z" fill="#FAFAFA"/>
<path d="M265.22 86.8908H264.86C265.021 86.0299 265.104 85.1565 265.11 84.2808C265.108 80.4634 263.589 76.8033 260.889 74.1049C258.189 71.4066 254.528 69.8908 250.71 69.8908H250.6C249.613 68.1911 248.188 66.787 246.474 65.8246C244.76 64.8622 242.82 64.3767 240.854 64.4185C238.889 64.4604 236.971 65.0281 235.3 66.0626C233.628 67.0971 232.264 68.5606 231.35 70.3008C230.349 70.0321 229.317 69.8943 228.28 69.8908C225.149 69.8912 222.14 71.1052 219.886 73.2777C217.631 75.4502 216.307 78.4121 216.19 81.5408C214.356 82.9254 213.001 84.85 212.316 87.0442C211.631 89.2384 211.651 91.5919 212.372 93.7743C213.094 95.9567 214.481 97.8582 216.339 99.2117C218.197 100.565 220.432 101.303 222.73 101.321C223.617 101.319 224.5 101.208 225.36 100.991H263.06C263.76 101.208 264.488 101.319 265.22 101.321C267.135 101.321 268.972 100.56 270.326 99.2061C271.68 97.8521 272.44 96.0157 272.44 94.1008C272.44 92.186 271.68 90.3495 270.326 88.9955C268.972 87.6415 267.135 86.8808 265.22 86.8808V86.8908Z" fill="#EBEBEB"/>
<path d="M380.689 115.27H380.409C380.534 114.611 380.598 113.941 380.599 113.27C380.599 110.353 379.44 107.555 377.377 105.492C375.314 103.429 372.516 102.27 369.599 102.27H369.519C368.766 100.965 367.676 99.8861 366.364 99.1462C365.051 98.4063 363.564 98.0327 362.057 98.0644C360.551 98.096 359.08 98.5319 357.8 99.3263C356.52 100.121 355.476 101.245 354.779 102.58C353.436 102.217 352.029 102.163 350.662 102.421C349.296 102.68 348.005 103.245 346.888 104.073C345.771 104.902 344.856 105.972 344.212 107.205C343.568 108.438 343.211 109.8 343.169 111.19C341.747 112.24 340.692 113.713 340.156 115.397C339.621 117.082 339.631 118.893 340.185 120.571C340.739 122.25 341.81 123.711 343.243 124.745C344.677 125.779 346.401 126.334 348.169 126.33C348.954 126.328 349.734 126.217 350.489 126H378.829C379.588 126.275 380.399 126.38 381.203 126.308C382.007 126.236 382.786 125.989 383.485 125.584C384.183 125.179 384.785 124.626 385.247 123.963C385.709 123.301 386.02 122.545 386.158 121.75C386.297 120.954 386.26 120.138 386.049 119.358C385.839 118.579 385.46 117.855 384.939 117.237C384.419 116.619 383.77 116.123 383.037 115.784C382.305 115.444 381.506 115.269 380.699 115.27H380.689Z" fill="#EBEBEB"/>
<path d="M152.689 123.27H152.409C152.534 122.611 152.598 121.941 152.599 121.27C152.599 118.353 151.44 115.555 149.377 113.492C147.314 111.429 144.516 110.27 141.599 110.27H141.519C140.766 108.965 139.676 107.886 138.364 107.146C137.051 106.406 135.564 106.033 134.057 106.064C132.551 106.096 131.08 106.532 129.8 107.326C128.52 108.121 127.476 109.245 126.779 110.58C125.436 110.217 124.029 110.163 122.662 110.421C121.296 110.68 120.006 111.245 118.888 112.073C117.771 112.902 116.856 113.972 116.212 115.205C115.568 116.438 115.211 117.8 115.169 119.19C113.747 120.24 112.692 121.713 112.156 123.397C111.621 125.082 111.631 126.893 112.185 128.571C112.739 130.25 113.81 131.711 115.243 132.745C116.677 133.779 118.401 134.334 120.169 134.33C120.954 134.328 121.734 134.217 122.489 134H150.829C151.588 134.275 152.399 134.38 153.203 134.308C154.007 134.236 154.786 133.989 155.485 133.584C156.183 133.179 156.785 132.626 157.247 131.963C157.709 131.301 158.02 130.545 158.158 129.75C158.297 128.954 158.26 128.138 158.049 127.358C157.839 126.579 157.46 125.855 156.939 125.237C156.419 124.619 155.77 124.123 155.037 123.784C154.305 123.444 153.506 123.269 152.699 123.27H152.689Z" fill="#EBEBEB"/>
<path d="M78.7794 346.78L77.5194 345C77.2911 344.685 76.99 344.43 76.6419 344.255C76.2937 344.081 75.9086 343.994 75.5194 344H66.6994C66.3326 343.994 65.9704 344.083 65.648 344.259C65.3257 344.434 65.054 344.689 64.8594 345L63.8594 346.75C63.6641 347.061 63.3923 347.316 63.0701 347.491C62.7479 347.666 62.3861 347.755 62.0194 347.75H56.6794C56.3836 347.748 56.0905 347.807 55.8186 347.924C55.5468 348.041 55.3022 348.213 55.1001 348.429C54.8981 348.645 54.743 348.901 54.6448 349.18C54.5466 349.459 54.5073 349.755 54.5294 350.05L56.2394 379.64C56.2819 380.257 56.554 380.835 57.002 381.261C57.45 381.687 58.0414 381.929 58.6594 381.94H100.569C100.865 381.943 101.158 381.883 101.43 381.767C101.702 381.65 101.947 381.478 102.149 381.262C102.351 381.046 102.506 380.79 102.604 380.511C102.702 380.232 102.742 379.935 102.719 379.64L100.999 350.11C100.962 349.494 100.692 348.914 100.246 348.488C99.7986 348.061 99.2071 347.819 98.5894 347.81H80.7394C80.3548 347.805 79.977 347.708 79.6364 347.529C79.2959 347.35 79.0023 347.094 78.7794 346.78Z" fill="#E0E0E0"/>
<path d="M102.78 350.63H64.3804C63.5951 350.64 62.8409 350.938 62.2604 351.466C61.68 351.995 61.3135 352.719 61.2304 353.5L58.9204 379.13C58.882 379.496 58.9221 379.867 59.038 380.217C59.1539 380.567 59.343 380.889 59.5927 381.16C59.8424 381.432 60.147 381.647 60.4862 381.792C60.8255 381.936 61.1916 382.007 61.5604 382H100C100.786 381.987 101.54 381.689 102.122 381.161C102.704 380.633 103.073 379.91 103.16 379.13L105.47 353.5C105.511 353.128 105.471 352.752 105.353 352.398C105.235 352.043 105.041 351.718 104.786 351.446C104.53 351.173 104.218 350.959 103.872 350.818C103.526 350.677 103.154 350.613 102.78 350.63Z" fill="#F0F0F0"/>
<path d="M417.71 347.2L416.46 345.45C416.231 345.136 415.929 344.881 415.581 344.707C415.233 344.533 414.849 344.445 414.46 344.45H405.6C405.233 344.442 404.87 344.53 404.547 344.705C404.225 344.881 403.953 345.137 403.76 345.45L402.7 347.2C402.505 347.511 402.234 347.766 401.911 347.941C401.589 348.117 401.227 348.206 400.86 348.2H395.57C395.274 348.197 394.981 348.257 394.709 348.373C394.437 348.49 394.193 348.662 393.991 348.878C393.789 349.094 393.634 349.35 393.535 349.629C393.437 349.908 393.398 350.205 393.42 350.5L395.14 380.09C395.178 380.706 395.447 381.286 395.894 381.712C396.341 382.139 396.932 382.381 397.55 382.39H439.5C439.796 382.392 440.089 382.333 440.361 382.216C440.633 382.099 440.877 381.927 441.079 381.711C441.281 381.495 441.436 381.239 441.535 380.96C441.633 380.681 441.672 380.385 441.65 380.09L439.94 350.5C439.898 349.883 439.625 349.305 439.177 348.879C438.729 348.453 438.138 348.211 437.52 348.2H419.67C419.288 348.197 418.912 348.106 418.571 347.932C418.231 347.758 417.936 347.508 417.71 347.2Z" fill="#E0E0E0"/>
<path d="M441.71 351.05H403.32C402.534 351.06 401.778 351.357 401.196 351.886C400.614 352.414 400.245 353.138 400.16 353.92L397.85 379.55C397.812 379.916 397.852 380.287 397.968 380.637C398.084 380.988 398.273 381.309 398.522 381.58C398.772 381.852 399.077 382.067 399.416 382.212C399.755 382.356 400.121 382.427 400.49 382.42H438.88C439.666 382.408 440.42 382.109 441.002 381.581C441.583 381.053 441.953 380.331 442.04 379.55L444.35 353.92C444.39 353.553 444.351 353.181 444.236 352.83C444.121 352.479 443.932 352.157 443.682 351.885C443.431 351.614 443.126 351.398 442.786 351.254C442.446 351.11 442.079 351.04 441.71 351.05Z" fill="#F0F0F0"/>
<path d="M297.001 323.289L295.741 321.539C295.512 321.224 295.211 320.969 294.863 320.795C294.515 320.62 294.13 320.533 293.741 320.539H284.881C284.514 320.533 284.152 320.622 283.829 320.798C283.507 320.973 283.235 321.228 283.041 321.539L282.001 323.289C281.806 323.6 281.534 323.855 281.212 324.03C280.889 324.205 280.528 324.294 280.161 324.289H274.871C274.575 324.287 274.282 324.346 274.01 324.463C273.738 324.58 273.494 324.752 273.292 324.968C273.089 325.184 272.934 325.44 272.836 325.719C272.738 325.998 272.699 326.294 272.721 326.589L274.431 356.179C274.473 356.796 274.745 357.374 275.193 357.8C275.641 358.226 276.233 358.468 276.851 358.479H318.751C319.047 358.483 319.341 358.425 319.613 358.309C319.886 358.192 320.131 358.021 320.334 357.804C320.536 357.588 320.691 357.331 320.789 357.052C320.886 356.772 320.925 356.475 320.901 356.179L319.191 326.589C319.153 325.973 318.884 325.393 318.437 324.967C317.99 324.54 317.399 324.298 316.781 324.289H298.931C298.554 324.282 298.184 324.189 297.849 324.015C297.514 323.842 297.224 323.593 297.001 323.289Z" fill="#E0E0E0"/>
<path d="M321 327.141H282.6C281.816 327.153 281.063 327.452 280.483 327.98C279.903 328.509 279.535 329.231 279.45 330.011L277.14 355.641C277.1 356.008 277.139 356.379 277.254 356.73C277.37 357.081 277.559 357.403 277.809 357.675C278.059 357.947 278.364 358.162 278.704 358.306C279.044 358.45 279.411 358.52 279.78 358.511H318.17C318.956 358.499 319.71 358.201 320.292 357.672C320.874 357.144 321.243 356.422 321.33 355.641L323.6 330.001C323.64 329.638 323.602 329.27 323.489 328.923C323.376 328.575 323.19 328.255 322.945 327.985C322.699 327.715 322.398 327.5 322.063 327.354C321.728 327.209 321.366 327.136 321 327.141Z" fill="#F0F0F0"/>
<path d="M249.999 427.56C357.082 427.56 443.889 422.492 443.889 416.24C443.889 409.988 357.082 404.92 249.999 404.92C142.917 404.92 56.1094 409.988 56.1094 416.24C56.1094 422.492 142.917 427.56 249.999 427.56Z" fill="#F5F5F5"/>
<path d="M161.628 127.01H61.9481C60.6392 127.01 59.5781 128.071 59.5781 129.38V303.54C59.5781 304.849 60.6392 305.91 61.9481 305.91H161.628C162.937 305.91 163.998 304.849 163.998 303.54V129.38C163.998 128.071 162.937 127.01 161.628 127.01Z" fill="#6CA4F9"/>
<path opacity="0.7" d="M161.628 127.01H61.9481C60.6392 127.01 59.5781 128.071 59.5781 129.38V303.54C59.5781 304.849 60.6392 305.91 61.9481 305.91H161.628C162.937 305.91 163.998 304.849 163.998 303.54V129.38C163.998 128.071 162.937 127.01 161.628 127.01Z" fill="white"/>
<path d="M86.338 149.68H66.668V152.35H86.338V149.68Z" fill="#6CA4F9"/>
<path d="M86.338 155.68H66.668V158.35H86.338V155.68Z" fill="#6CA4F9"/>
<path d="M156.377 149.68H136.707V152.35H156.377V149.68Z" fill="#6CA4F9"/>
<path d="M119.709 137.33H100.039V140H119.709V137.33Z" fill="#6CA4F9"/>
<path d="M156.378 132.67H66.668V135.34H156.378V132.67Z" fill="#6CA4F9"/>
<path d="M156.368 164H76.668V166.67H156.368V164Z" fill="#6CA4F9"/>
<path d="M156.378 169.33H66.668V172H156.378V169.33Z" fill="#6CA4F9"/>
<path d="M156.378 174.67H66.668V177.34H156.378V174.67Z" fill="#6CA4F9"/>
<path d="M156.378 180H66.668V182.67H156.378V180Z" fill="#6CA4F9"/>
<path d="M146.368 185.33H66.668V188H146.368V185.33Z" fill="#6CA4F9"/>
<path d="M156.368 195.02H76.668V197.69H156.368V195.02Z" fill="#6CA4F9"/>
<path d="M156.378 200.35H66.668V203.02H156.378V200.35Z" fill="#6CA4F9"/>
<path d="M156.378 205.689H66.668V208.359H156.378V205.689Z" fill="#6CA4F9"/>
<path d="M156.378 211.02H66.668V213.69H156.378V211.02Z" fill="#6CA4F9"/>
<path d="M146.368 216.35H66.668V219.02H146.368V216.35Z" fill="#6CA4F9"/>
<path d="M156.368 226.039H76.668V228.709H156.368V226.039Z" fill="#6CA4F9"/>
<path d="M156.378 231.369H66.668V234.039H156.378V231.369Z" fill="#6CA4F9"/>
<path d="M156.378 236.709H66.668V239.379H156.378V236.709Z" fill="#6CA4F9"/>
<path d="M156.378 242.039H66.668V244.709H156.378V242.039Z" fill="#6CA4F9"/>
<path d="M146.368 247.369H66.668V250.039H146.368V247.369Z" fill="#6CA4F9"/>
<path d="M156.368 258.061H76.668V260.731H156.368V258.061Z" fill="#6CA4F9"/>
<path d="M156.378 263.391H66.668V266.061H156.378V263.391Z" fill="#6CA4F9"/>
<path d="M156.378 268.73H66.668V271.4H156.378V268.73Z" fill="#6CA4F9"/>
<path d="M156.378 274.061H66.668V276.731H156.378V274.061Z" fill="#6CA4F9"/>
<path d="M146.368 279.391H66.668V282.061H146.368V279.391Z" fill="#6CA4F9"/>
<path d="M156.377 294.77H136.707V297.44H156.377V294.77Z" fill="#6CA4F9"/>
<g opacity="0.2">
<path d="M86.338 149.68H66.668V152.35H86.338V149.68Z" fill="white"/>
<path d="M86.338 155.68H66.668V158.35H86.338V155.68Z" fill="white"/>
<path d="M156.377 149.68H136.707V152.35H156.377V149.68Z" fill="white"/>
<path d="M119.709 137.33H100.039V140H119.709V137.33Z" fill="white"/>
<path d="M156.378 132.67H66.668V135.34H156.378V132.67Z" fill="white"/>
<path d="M156.368 164H76.668V166.67H156.368V164Z" fill="white"/>
<path d="M156.378 169.33H66.668V172H156.378V169.33Z" fill="white"/>
<path d="M156.378 174.67H66.668V177.34H156.378V174.67Z" fill="white"/>
<path d="M156.378 180H66.668V182.67H156.378V180Z" fill="white"/>
<path d="M146.368 185.33H66.668V188H146.368V185.33Z" fill="white"/>
<path d="M156.368 195.02H76.668V197.69H156.368V195.02Z" fill="white"/>
<path d="M156.378 200.35H66.668V203.02H156.378V200.35Z" fill="white"/>
<path d="M156.378 205.689H66.668V208.359H156.378V205.689Z" fill="white"/>
<path d="M156.378 211.02H66.668V213.69H156.378V211.02Z" fill="white"/>
<path d="M146.368 216.35H66.668V219.02H146.368V216.35Z" fill="white"/>
<path d="M156.368 226.039H76.668V228.709H156.368V226.039Z" fill="white"/>
<path d="M156.378 231.369H66.668V234.039H156.378V231.369Z" fill="white"/>
<path d="M156.378 236.709H66.668V239.379H156.378V236.709Z" fill="white"/>
<path d="M156.378 242.039H66.668V244.709H156.378V242.039Z" fill="white"/>
<path d="M146.368 247.369H66.668V250.039H146.368V247.369Z" fill="white"/>
<path d="M156.368 258.061H76.668V260.731H156.368V258.061Z" fill="white"/>
<path d="M156.378 263.391H66.668V266.061H156.378V263.391Z" fill="white"/>
<path d="M156.378 268.73H66.668V271.4H156.378V268.73Z" fill="white"/>
<path d="M156.378 274.061H66.668V276.731H156.378V274.061Z" fill="white"/>
<path d="M146.368 279.391H66.668V282.061H146.368V279.391Z" fill="white"/>
<path d="M156.377 294.77H136.707V297.44H156.377V294.77Z" fill="white"/>
</g>
<path opacity="0.1" d="M166.63 265.301H111.03C109.721 265.301 108.66 266.362 108.66 267.671V313.061C108.66 314.37 109.721 315.431 111.03 315.431H166.63C167.939 315.431 169 314.37 169 313.061V267.671C169 266.362 167.939 265.301 166.63 265.301Z" fill="black"/>
<path d="M174.072 274.791H118.472C117.163 274.791 116.102 275.852 116.102 277.161V322.551C116.102 323.86 117.163 324.921 118.472 324.921H174.072C175.38 324.921 176.442 323.86 176.442 322.551V277.161C176.442 275.852 175.38 274.791 174.072 274.791Z" fill="#6CA4F9"/>
<path opacity="0.3" d="M174.072 274.791H118.472C117.163 274.791 116.102 275.852 116.102 277.161V322.551C116.102 323.86 117.163 324.921 118.472 324.921H174.072C175.38 324.921 176.442 323.86 176.442 322.551V277.161C176.442 275.852 175.38 274.791 174.072 274.791Z" fill="white"/>
<path d="M134 304H122V310H134V304Z" fill="#6CA4F9"/>
<path d="M169 304H135V310H169V304Z" fill="#6CA4F9"/>
<path d="M134 296H122V303H134V296Z" fill="#6CA4F9"/>
<path d="M134 289H122V295H134V289Z" fill="#6CA4F9"/>
<path d="M169 296H135V303H169V296Z" fill="#6CA4F9"/>
<path d="M169 311H135V318H169V311Z" fill="#6CA4F9"/>
<path d="M169 289H135V295H169V289Z" fill="#6CA4F9"/>
<path d="M134 311H122V318H134V311Z" fill="#6CA4F9"/>
<path d="M134 281H122V288H134V281Z" fill="#6CA4F9"/>
<path d="M169 281H135V288H169V281Z" fill="#6CA4F9"/>
<path opacity="0.1" d="M183.9 178.621H128.3C126.991 178.621 125.93 179.682 125.93 180.991V226.381C125.93 227.69 126.991 228.751 128.3 228.751H183.9C185.209 228.751 186.27 227.69 186.27 226.381V180.991C186.27 179.682 185.209 178.621 183.9 178.621Z" fill="black"/>
<path d="M195.072 176.25H139.472C138.163 176.25 137.102 177.311 137.102 178.62V224.01C137.102 225.319 138.163 226.38 139.472 226.38H195.072C196.38 226.38 197.442 225.319 197.442 224.01V178.62C197.442 177.311 196.38 176.25 195.072 176.25Z" fill="#6CA4F9"/>
<path opacity="0.3" d="M195.072 176.25H139.472C138.163 176.25 137.102 177.311 137.102 178.62V224.01C137.102 225.319 138.163 226.38 139.472 226.38H195.072C196.38 226.38 197.442 225.319 197.442 224.01V178.62C197.442 177.311 196.38 176.25 195.072 176.25Z" fill="white"/>
<path d="M191 183H176V190H191V183Z" fill="#6CA4F9"/>
<path d="M175 183H160V190H175V183Z" fill="#6CA4F9"/>
<path d="M175 190H160V220H175V190Z" fill="#6CA4F9"/>
<path d="M191 190H176V220H191V190Z" fill="#6CA4F9"/>
<path d="M159 183H144V190H159V183Z" fill="#6CA4F9"/>
<path d="M159 190H144V220H159V190Z" fill="#6CA4F9"/>
<path opacity="0.1" d="M202.802 231.23H147.202C145.893 231.23 144.832 232.292 144.832 233.6V278.99C144.832 280.299 145.893 281.36 147.202 281.36H202.802C204.111 281.36 205.172 280.299 205.172 278.99V233.6C205.172 232.292 204.111 231.23 202.802 231.23Z" fill="black"/>
<path d="M223.072 228.02H167.472C166.163 228.02 165.102 229.081 165.102 230.39V275.78C165.102 277.088 166.163 278.15 167.472 278.15H223.072C224.38 278.15 225.442 277.088 225.442 275.78V230.39C225.442 229.081 224.38 228.02 223.072 228.02Z" fill="#6CA4F9"/>
<path opacity="0.3" d="M223.072 228.02H167.472C166.163 228.02 165.102 229.081 165.102 230.39V275.78C165.102 277.088 166.163 278.15 167.472 278.15H223.072C224.38 278.15 225.442 277.088 225.442 275.78V230.39C225.442 229.081 224.38 228.02 223.072 228.02Z" fill="white"/>
<path d="M219 235H196V252H219V235Z" fill="#6CA4F9"/>
<path d="M195 235H172V252H195V235Z" fill="#6CA4F9"/>
<path d="M195 253H172V272H195V253Z" fill="#6CA4F9"/>
<path d="M219 253H196V272H219V253Z" fill="#6CA4F9"/>
<path opacity="0.2" d="M225 230.39V264H204.27C203.688 264.018 203.108 263.914 202.569 263.694C202.03 263.474 201.543 263.143 201.141 262.722C200.738 262.301 200.428 261.801 200.232 261.252C200.035 260.704 199.956 260.121 200 259.54V228H223.07C224.38 228 225 229.08 225 230.39Z" fill="black"/>
<path opacity="0.1" d="M204.06 131.49H148.46C147.151 131.49 146.09 132.551 146.09 133.86V179.25C146.09 180.559 147.151 181.62 148.46 181.62H204.06C205.369 181.62 206.43 180.559 206.43 179.25V133.86C206.43 132.551 205.369 131.49 204.06 131.49Z" fill="black"/>
<path d="M214.072 122.48H158.472C157.163 122.48 156.102 123.542 156.102 124.85V170.24C156.102 171.549 157.163 172.61 158.472 172.61H214.072C215.38 172.61 216.442 171.549 216.442 170.24V124.85C216.442 123.542 215.38 122.48 214.072 122.48Z" fill="#6CA4F9"/>
<path opacity="0.3" d="M214.072 122.48H158.472C157.163 122.48 156.102 123.542 156.102 124.85V170.24C156.102 171.549 157.163 172.61 158.472 172.61H214.072C215.38 172.61 216.442 171.549 216.442 170.24V124.85C216.442 123.542 215.38 122.48 214.072 122.48Z" fill="white"/>
<path d="M199 129H180V134H199V129Z" fill="#6CA4F9"/>
<path d="M189 135H180V166H189V135Z" fill="#6CA4F9"/>
<path d="M210 129H200V134H210V129Z" fill="#6CA4F9"/>
<path d="M210 135H200V166H210V135Z" fill="#6CA4F9"/>
<path d="M199 135H190V166H199V135Z" fill="#6CA4F9"/>
<path d="M179 135H163V166H179V135Z" fill="#6CA4F9"/>
<path d="M179 129H163V134H179V129Z" fill="#6CA4F9"/>
<path d="M380.091 239.689H312.011C309.41 239.689 307.301 241.798 307.301 244.399V312.479C307.301 315.081 309.41 317.189 312.011 317.189H380.091C382.692 317.189 384.801 315.081 384.801 312.479V244.399C384.801 241.798 382.692 239.689 380.091 239.689Z" fill="#6CA4F9"/>
<path opacity="0.25" d="M375.002 249.818H317.422V307.068H375.002V249.818Z" fill="white"/>
<path opacity="0.25" d="M317.422 306.998L332.082 294.948L336.872 298.808L352.052 285.988L359.512 293.328L375.002 280.328V306.998H317.422Z" fill="white"/>
<path opacity="0.25" d="M317.422 307L329.832 283.72L344.332 285.98L355.172 271.82L366.332 273.83L375.002 265.17V307H317.422Z" fill="white"/>
<path opacity="0.25" d="M317.422 307L346.052 303.46L355.332 298.82L365.332 299.82L375.002 295V307H317.422Z" fill="white"/>
<path opacity="0.2" d="M377 240V248C376.946 249.309 376.402 250.549 375.476 251.476C374.549 252.402 373.309 252.946 372 253H316V276.48C315.935 277.742 315.372 278.927 314.435 279.774C313.498 280.622 312.262 281.063 311 281H307V244.4C307 241.8 309.4 240 312 240H377Z" fill="black"/>
<path d="M285.7 173.879H217.62C215.019 173.879 212.91 175.988 212.91 178.589V246.669C212.91 249.27 215.019 251.379 217.62 251.379H285.7C288.301 251.379 290.41 249.27 290.41 246.669V178.589C290.41 175.988 288.301 173.879 285.7 173.879Z" fill="#6CA4F9"/>
<path opacity="0.8" d="M261.509 181.969H241.499C241.018 181.969 240.629 182.358 240.629 182.839V194.129C240.629 194.609 241.018 194.999 241.499 194.999H261.509C261.989 194.999 262.379 194.609 262.379 194.129V182.839C262.379 182.358 261.989 181.969 261.509 181.969Z" fill="white"/>
<path opacity="0.6" d="M246.24 210H230.39C229.909 210 229.52 210.39 229.52 210.87V219.08C229.52 219.56 229.909 219.95 230.39 219.95H246.24C246.72 219.95 247.11 219.56 247.11 219.08V210.87C247.11 210.39 246.72 210 246.24 210Z" fill="white"/>
<path opacity="0.6" d="M272.931 210H257.081C256.6 210 256.211 210.39 256.211 210.87V219.08C256.211 219.56 256.6 219.95 257.081 219.95H272.931C273.411 219.95 273.801 219.56 273.801 219.08V210.87C273.801 210.39 273.411 210 272.931 210Z" fill="white"/>
<path opacity="0.4" d="M256.52 231.049H249.03C248.55 231.049 248.16 231.438 248.16 231.919V238.679C248.16 239.159 248.55 239.549 249.03 239.549H256.52C257.001 239.549 257.39 239.159 257.39 238.679V231.919C257.39 231.438 257.001 231.049 256.52 231.049Z" fill="white"/>
<path opacity="0.4" d="M268.239 231.049H260.749C260.268 231.049 259.879 231.438 259.879 231.919V238.679C259.879 239.159 260.268 239.549 260.749 239.549H268.239C268.719 239.549 269.109 239.159 269.109 238.679V231.919C269.109 231.438 268.719 231.049 268.239 231.049Z" fill="white"/>
<path opacity="0.4" d="M279.969 231.049H272.479C271.999 231.049 271.609 231.438 271.609 231.919V238.679C271.609 239.159 271.999 239.549 272.479 239.549H279.969C280.45 239.549 280.839 239.159 280.839 238.679V231.919C280.839 231.438 280.45 231.049 279.969 231.049Z" fill="white"/>
<path opacity="0.4" d="M229.391 231.049H221.901C221.421 231.049 221.031 231.438 221.031 231.919V238.679C221.031 239.159 221.421 239.549 221.901 239.549H229.391C229.872 239.549 230.261 239.159 230.261 238.679V231.919C230.261 231.438 229.872 231.049 229.391 231.049Z" fill="white"/>
<path opacity="0.4" d="M242.11 231.049H234.62C234.14 231.049 233.75 231.438 233.75 231.919V238.679C233.75 239.159 234.14 239.549 234.62 239.549H242.11C242.59 239.549 242.98 239.159 242.98 238.679V231.919C242.98 231.438 242.59 231.049 242.11 231.049Z" fill="white"/>
<g opacity="0.3">
<path d="M264 210H265V203H252V195H251V203H238V210H239V204H264V210Z" fill="white"/>
<path d="M238 226H225V231H226V227H238V231H239V220H238V226Z" fill="white"/>
<path d="M265 227V220H264V227H252V231H253V228H264V231H265V228H276V231H277V227H265Z" fill="white"/>
</g>
<path opacity="0.2" d="M290 178.588V200.998H235.07C233.751 200.954 232.497 200.416 231.558 199.489C230.618 198.563 230.062 197.316 230 195.998V173.998H285.71C286.3 173.994 286.885 174.112 287.428 174.345C287.97 174.578 288.458 174.921 288.862 175.352C289.265 175.784 289.574 176.294 289.77 176.851C289.966 177.408 290.044 177.999 290 178.588Z" fill="black"/>
<path d="M391.97 140.189H323.89C321.288 140.189 319.18 142.298 319.18 144.899V212.979C319.18 215.581 321.288 217.689 323.89 217.689H391.97C394.571 217.689 396.68 215.581 396.68 212.979V144.899C396.68 142.298 394.571 140.189 391.97 140.189Z" fill="#6CA4F9"/>
<path opacity="0.25" d="M386.721 150.309H329.141V207.559H386.721V150.309Z" fill="white"/>
<path opacity="0.35" d="M340.82 185.5H335.02V200.37H340.82V185.5Z" fill="white"/>
<path opacity="0.35" d="M340.82 185.5H335.02V207.56H340.82V185.5Z" fill="white"/>
<path opacity="0.35" d="M350.82 175.078H345.02V196.968H350.82V175.078Z" fill="white"/>
<path opacity="0.35" d="M350.82 175.078H345.02V207.558H350.82V175.078Z" fill="white"/>
<path opacity="0.35" d="M360.831 181.488H355.031V199.058H360.831V181.488Z" fill="white"/>
<path opacity="0.35" d="M360.831 181.488H355.031V207.558H360.831V181.488Z" fill="white"/>
<path opacity="0.35" d="M370.839 172.488H365.039V196.128H370.839V172.488Z" fill="white"/>
<path opacity="0.35" d="M370.839 172.488H365.039V207.558H370.839V172.488Z" fill="white"/>
<path opacity="0.35" d="M380.839 158.738H375.039V191.638H380.839V158.738Z" fill="white"/>
<path opacity="0.35" d="M380.839 158.738H375.039V207.558H380.839V158.738Z" fill="white"/>
<path opacity="0.2" d="M340 140V182.4C339.969 183.65 339.442 184.837 338.537 185.699C337.631 186.562 336.42 187.03 335.17 187H319V144.89C319.028 143.604 319.551 142.377 320.46 141.467C321.369 140.556 322.594 140.031 323.88 140H340Z" fill="black"/>
<path d="M328.06 87.0391H259.98C257.378 87.0391 255.27 89.1478 255.27 91.7491V159.829C255.27 162.43 257.378 164.539 259.98 164.539H328.06C330.661 164.539 332.77 162.43 332.77 159.829V91.7491C332.77 89.1478 330.661 87.0391 328.06 87.0391Z" fill="#6CA4F9"/>
<path opacity="0.25" d="M319.118 129.864C321.366 116.011 311.959 102.959 298.107 100.711C284.255 98.4621 271.203 107.869 268.954 121.721C266.706 135.573 276.112 148.626 289.965 150.874C303.817 153.123 316.869 143.716 319.118 129.864Z" fill="white"/>
<path opacity="0.25" d="M294.001 125.789L319.001 130.529C318.1 135.265 315.87 139.647 312.572 143.163C309.274 146.679 305.044 149.184 300.376 150.386C295.707 151.588 290.793 151.438 286.207 149.952C281.621 148.466 277.552 145.707 274.476 141.995C271.399 138.284 269.442 133.774 268.833 128.992C268.223 124.21 268.987 119.353 271.034 114.988C273.081 110.624 276.328 106.932 280.394 104.343C284.461 101.755 289.18 100.376 294.001 100.369V125.789Z" fill="white"/>
<path opacity="0.25" d="M293.999 125.789V151.199C287.346 151.058 281.013 148.314 276.361 143.556C271.709 138.797 269.108 132.405 269.117 125.75C269.126 119.095 271.745 112.709 276.41 107.964C281.075 103.218 287.416 100.492 294.069 100.369L293.999 125.789Z" fill="white"/>
<path opacity="0.25" d="M293.999 125.789L280.609 104.189C282.596 102.952 284.747 101.999 286.999 101.359C289.249 100.708 291.578 100.371 293.919 100.359L293.999 125.789Z" fill="white"/>
<path d="M428.25 176C428.25 176 441.75 199.66 442.75 205.33C443.75 211 431.25 247.25 431.25 247.25C431.25 247.25 434 256.79 431 258.4C428 260.01 422.76 263.25 422 260.5C421.24 257.75 422 248.68 422 248.68L424.26 246.75C424.26 246.75 432.26 208.87 432.26 207.56C432.26 206.25 417.75 183.91 417.75 183.91L428.25 176Z" fill="#E4897B"/>
<path d="M378.482 407.031L370.372 407.881L369.962 403.181L368.852 390.391L376.962 389.531L378.192 403.661L378.482 407.031Z" fill="#E4897B"/>
<path d="M418.959 406H411.099L411.029 404.22L411.019 404L410.619 392.6L410.609 392.37L410.449 388H418.319L418.959 406Z" fill="#E4897B"/>
<path opacity="0.2" d="M376.962 389.531L378.192 403.661L369.962 403.181L368.852 390.391L376.962 389.531Z" fill="black"/>
<path opacity="0.2" d="M418.909 405H418.899L411.029 404H411.019L410.609 393H410.619L418.499 393.63L418.899 404.65L418.909 405Z" fill="black"/>
<path d="M437.281 187.33L423.751 196.53L423.491 196.2L415.281 185.5L410.281 178.94L417.711 158.74C426.251 162 437.281 187.33 437.281 187.33Z" fill="#263238"/>
<path opacity="0.2" d="M423.491 196.201L415.281 185.501L421.871 175.391C421.871 175.391 425.901 185.831 423.491 196.201Z" fill="black"/>
<path d="M409.999 405.53H419.549C419.706 405.529 419.858 405.582 419.981 405.68C420.103 405.779 420.187 405.916 420.219 406.07L421.769 413.07C421.801 413.239 421.796 413.414 421.753 413.582C421.71 413.749 421.631 413.905 421.522 414.039C421.412 414.172 421.274 414.28 421.118 414.355C420.962 414.429 420.792 414.468 420.619 414.47C417.529 414.42 415.279 414.23 411.399 414.23C409.009 414.23 401.799 414.48 398.499 414.48C395.199 414.48 394.769 411.22 396.119 410.92C402.179 409.6 406.739 407.77 408.679 406.03C409.038 405.699 409.511 405.52 409.999 405.53Z" fill="#263238"/>
<path d="M369.511 405.28H379.061C379.218 405.279 379.37 405.332 379.492 405.43C379.614 405.529 379.699 405.666 379.731 405.82L381.281 412.82C381.313 412.989 381.308 413.164 381.265 413.332C381.222 413.499 381.143 413.655 381.033 413.789C380.924 413.922 380.786 414.03 380.63 414.105C380.474 414.179 380.304 414.218 380.131 414.22C377.041 414.17 374.791 413.98 370.911 413.98C368.521 413.98 361.311 414.23 358.011 414.23C354.711 414.23 354.281 410.97 355.631 410.67C361.691 409.35 366.251 407.52 368.191 405.78C368.55 405.449 369.023 405.27 369.511 405.28Z" fill="#263238"/>
<path d="M368.109 402H379.639C379.639 402 378.699 302.75 391.169 269.23C392.049 280.31 393.039 291.8 394.009 301.38C394.609 307.31 395.219 312.38 395.789 316.29C399.419 341.29 408.569 403 408.569 403H419.999C419.999 403 418.639 343.86 417.299 319.3C415.809 292.63 415.169 234 415.099 229H373.359C369.389 250 359.209 334 368.109 402Z" fill="#6CA4F9"/>
<path opacity="0.6" d="M368.109 402H379.639C379.639 402 378.699 302.75 391.169 269.23C392.049 280.31 393.039 291.8 394.009 301.38C394.609 307.31 395.219 312.38 395.789 316.29C399.419 341.29 408.569 403 408.569 403H419.999C419.999 403 418.639 343.86 417.299 319.3C415.809 292.63 415.169 234 415.099 229H373.359C369.389 250 359.209 334 368.109 402Z" fill="white"/>
<path d="M388.499 140.87C388.599 141.25 388.709 141.63 388.839 141.98C389.779 144.605 391.681 146.774 394.159 148.05C396.056 149.064 398.232 149.428 400.356 149.089C402.479 148.749 404.433 147.724 405.919 146.17C409.859 142.17 409.759 137.6 410.199 129.83C410.335 128.015 410.003 126.196 409.235 124.545C408.468 122.895 407.291 121.468 405.816 120.402C404.342 119.335 402.618 118.663 400.811 118.451C399.003 118.239 397.171 118.494 395.489 119.19C387.859 122.3 386.819 133.87 388.499 140.87Z" fill="#E4897B"/>
<path opacity="0.2" d="M392.73 147.171C393.184 147.5 393.662 147.795 394.16 148.051C395.462 148.742 396.902 149.133 398.374 149.197C399.846 149.261 401.314 148.996 402.67 148.421C402.325 147.484 401.858 146.596 401.28 145.781C398.356 145.415 395.388 145.898 392.73 147.171Z" fill="black"/>
<path d="M408.381 157.25C404.551 160.73 395.171 159.44 395.171 159.44C395.171 159.44 389.311 157.84 390.541 156.01C393.991 155.44 395.661 153.83 396.351 151.77C396.729 150.493 396.848 149.154 396.701 147.83C396.644 147.092 396.547 146.358 396.411 145.63L408.001 137C406.491 142.71 404.631 153.14 408.381 157.25Z" fill="#E4897B"/>
<path d="M392.229 124.39C392.309 124.61 392.109 125.06 391.959 125.57C391.68 126.57 391.539 127.603 391.539 128.64C391.571 130.332 391.942 131.999 392.629 133.545C393.316 135.091 394.305 136.483 395.539 137.64C396.406 140.784 397.578 143.835 399.039 146.75C399.165 147.052 399.364 147.317 399.619 147.52C399.963 147.699 400.355 147.765 400.739 147.71L407.519 147.48C407.717 147.5 407.918 147.476 408.106 147.411C408.294 147.345 408.466 147.239 408.609 147.1C408.713 146.906 408.797 146.702 408.859 146.49C409.469 145.03 412.049 145.72 412.939 144.41C413.198 143.817 413.376 143.191 413.469 142.55C414.029 140.93 416.319 140.09 416.239 138.37C416.189 137.37 415.239 136.47 415.559 135.51C415.879 134.55 417.059 134.25 417.559 133.39C418.059 132.53 417.559 131.39 417.009 130.59C416.685 130.211 416.442 129.77 416.294 129.294C416.146 128.818 416.097 128.316 416.149 127.82C416.288 127.451 416.462 127.096 416.669 126.76C416.989 126.085 417.096 125.329 416.976 124.591C416.856 123.854 416.516 123.17 415.999 122.63C415.526 122.262 415.109 121.827 414.759 121.34C414.299 120.47 414.689 119.34 414.129 118.47C413.569 117.6 412.419 117.63 411.439 117.69C410.459 117.75 409.299 117.69 408.719 116.95C408.299 116.38 408.319 115.57 407.859 115.04C407.199 114.3 405.999 114.5 405.069 114.87C404.139 115.24 403.119 115.71 402.219 115.3C401.589 115.01 401.219 114.37 400.649 113.99C400.245 113.73 399.769 113.604 399.29 113.631C398.81 113.657 398.351 113.836 397.979 114.14C397.479 114.57 397.179 115.22 396.609 115.56C395.739 115.905 394.77 115.905 393.899 115.56C393.466 115.388 392.994 115.336 392.534 115.412C392.074 115.488 391.644 115.688 391.289 115.99C390.449 116.99 391.359 118.77 390.499 119.78C390.009 120.36 389.109 120.44 388.579 120.98C388.416 121.176 388.304 121.409 388.254 121.658C388.203 121.908 388.215 122.166 388.288 122.409C388.361 122.653 388.494 122.875 388.674 123.055C388.854 123.235 389.075 123.367 389.319 123.44C389.619 123.5 390.009 123.52 390.119 123.8C390.149 123.925 390.169 124.052 390.179 124.18C390.289 124.57 390.839 124.59 391.179 124.46C391.879 124.19 392.159 124.21 392.229 124.39Z" fill="#263238"/>
<path d="M397.149 134.351C397.002 135.083 396.693 135.773 396.245 136.37C395.797 136.967 395.22 137.456 394.559 137.801C392.979 138.471 391.939 136.241 392.169 133.911C392.389 131.831 393.459 128.911 395.169 129.301C396.879 129.691 397.699 132.261 397.149 134.351Z" fill="#E4897B"/>
<path opacity="0.2" d="M391.168 269.18C392.048 280.26 393.038 291.78 394.008 301.36C395.428 287.53 397.168 277.67 397.168 277.67C397.168 277.67 398.798 276.33 403.278 269.18C407.758 262.03 403.278 248.68 403.278 248.68C403.418 261.08 391.168 269.18 391.168 269.18Z" fill="black"/>
<path d="M416.998 237.331L369.328 235.001C370.382 217.637 372.5 200.355 375.668 183.251C376.971 176.38 378.64 169.583 380.668 162.891C381.7 159.495 382.912 156.157 384.298 152.891C384.298 152.891 413.928 155.331 419.998 160.001C426.068 164.671 416.668 213.001 416.998 237.331Z" fill="#263238"/>
<path d="M392.141 153.68C392.141 153.68 396.671 150.12 405.141 150.31C413.611 150.5 414.471 153.68 414.471 153.68C414.471 153.68 423.801 158.33 416.471 166C409.141 173.67 394.701 154.24 394.701 154.24L392.141 153.68Z" fill="#263238"/>
<path opacity="0.25" d="M392.141 153.68C392.141 153.68 396.671 150.12 405.141 150.31C413.611 150.5 414.471 153.68 414.471 153.68C414.471 153.68 423.801 158.33 416.471 166C409.141 173.67 394.701 154.24 394.701 154.24L392.141 153.68Z" fill="white"/>
<path opacity="0.2" d="M385.048 163.501C385.048 163.501 382.998 177.001 375.668 183.251C376.97 176.38 378.64 169.583 380.668 162.891L385.048 163.501Z" fill="black"/>
<path d="M378.94 153.061C378.94 153.061 349.33 147.011 345.17 145.421C341.01 143.831 319 122.791 319 122.791L314.18 126.431C314.18 126.431 330.67 147.831 338.92 154.001C347.17 160.171 376 169.491 376 169.491L378.94 153.061Z" fill="#E4897B"/>
<path d="M385.118 153.06L359.328 148.35L358.668 166.17L377.938 174C377.938 174 390.088 161.81 385.118 153.06Z" fill="#263238"/>
<path d="M319 122.79C316.63 120.08 308 114.23 306.73 113.73C305.46 113.23 303.62 120.88 303.99 121.88C304.36 122.88 308.6 125 310.74 125.25C312.88 125.5 315.16 127.69 315.16 127.69L319 122.79Z" fill="#E4897B"/>
<path d="M357.928 147.701L360.758 148.351L359.468 166.491L356.758 165.501L357.928 147.701Z" fill="#263238"/>
<path opacity="0.25" d="M357.928 147.701L360.758 148.351L359.468 166.491L356.758 165.501L357.928 147.701Z" fill="white"/>
<path d="M422 196.381L437.28 186.031L438.33 188.671L423.77 197.831L422 196.381Z" fill="#263238"/>
<path opacity="0.25" d="M422 196.381L437.28 186.031L438.33 188.671L423.77 197.831L422 196.381Z" fill="white"/>
<path d="M366.809 398.75L367.379 402H380.999V399L366.809 398.75Z" fill="#6CA4F9"/>
<path d="M407.27 400L408.57 403H420L420.75 400H407.27Z" fill="#6CA4F9"/>
</svg>
